<svg xmlns="http://www.w3.org/2000/svg" width="20" height="20" viewBox="0 0 20 20">
    <path fill="#7C8796" d="M18.393 20c.446 0 .826-.156 1.138-.469.313-.312.469-.692.469-1.138V3.036c0-.447-.156-.826-.469-1.139-.312-.312-.692-.468-1.138-.468h-2.679V.804c0-.224-.078-.413-.234-.57C15.324.078 15.134 0 14.91 0c-.223 0-.412.078-.568.234-.157.157-.235.346-.235.57v.625H5.893V.804c0-.224-.078-.413-.235-.57C5.502.078 5.312 0 5.09 0c-.223 0-.413.078-.569.234-.156.157-.234.346-.234.57v.625H1.607c-.446 0-.826.156-1.138.468C.156 2.21 0 2.59 0 3.036v15.357c0 .446.156.826.469 1.138.312.313.692.469 1.138.469h16.786zm0-14.464H1.607v-2.5h2.679v.446c0 .223.078.413.234.57.156.156.346.234.57.234.223 0 .412-.078.568-.235.157-.156.235-.346.235-.569v-.446h8.214v.446c0 .223.078.413.235.57.156.156.345.234.569.234.223 0 .413-.078.569-.235.156-.156.234-.346.234-.569v-.446h2.679v2.5zm0 12.857H1.607V7.143h16.786v11.25zM6.429 11.429c.193 0 .36-.071.502-.212.141-.142.212-.31.212-.503s-.07-.36-.212-.502c-.142-.141-.309-.212-.502-.212H5c-.193 0-.36.07-.502.212-.142.141-.212.309-.212.502 0 .194.07.361.212.503.141.14.309.212.502.212h1.429zm4.285 0c.194 0 .361-.071.503-.212.14-.142.212-.31.212-.503s-.071-.36-.212-.502c-.142-.141-.31-.212-.503-.212H9.286c-.194 0-.361.07-.503.212-.14.141-.212.309-.212.502 0 .194.071.361.212.503.142.14.31.212.503.212h1.428zm4.286 0c.193 0 .36-.071.502-.212.142-.142.212-.31.212-.503s-.07-.36-.212-.502C15.361 10.071 15.193 10 15 10h-1.429c-.193 0-.36.07-.502.212-.141.141-.212.309-.212.502 0 .194.07.361.212.503.142.14.309.212.502.212H15zm-8.571 4.33c.193 0 .36-.07.502-.212.141-.141.212-.309.212-.502 0-.194-.07-.361-.212-.503-.142-.141-.309-.212-.502-.212H5c-.193 0-.36.071-.502.212-.142.142-.212.31-.212.503s.07.36.212.502c.141.141.309.212.502.212h1.429zm4.285 0c.194 0 .361-.07.503-.212.14-.141.212-.309.212-.502 0-.194-.071-.361-.212-.503-.142-.141-.31-.212-.503-.212H9.286c-.194 0-.361.071-.503.212-.14.142-.212.31-.212.503s.071.36.212.502c.142.141.31.212.503.212h1.428z"/>
</svg>
