<svg xmlns="http://www.w3.org/2000/svg" width="16" height="16" viewBox="0 0 16 16">
    <g fill="none" fill-rule="evenodd">
        <path d="M0 0H24V24H0z" transform="translate(-4 -4)"/>
        <path fill="#7C8796" fill-rule="nonzero" d="M6.906 20c.094 0 .188-.026.282-.078L9.5 18.609c.813.25 1.646.375 2.5.375 1.073 0 2.104-.192 3.094-.578.958-.385 1.807-.922 2.547-1.61.74-.687 1.312-1.478 1.718-2.374.427-.927.641-1.906.641-2.938 0-1.01-.214-1.984-.64-2.921-.407-.896-.98-1.693-1.72-2.391-.739-.688-1.588-1.219-2.546-1.594C14.114 4.193 13.084 4 12 4c-1.083 0-2.115.193-3.094.578-.958.375-1.807.906-2.547 1.594-.74.698-1.312 1.495-1.718 2.39C4.214 9.5 4 10.474 4 11.485c0 .917.172 1.8.516 2.649.343.849.833 1.617 1.468 2.305l.36 3.062c.031.198.135.344.312.438.073.041.157.062.25.062zm.453-1.469l-.28-2.422c-.011-.125-.063-.234-.157-.328-.583-.583-1.029-1.245-1.336-1.984-.307-.74-.461-1.51-.461-2.313 0-.854.177-1.671.531-2.453C6 8.271 6.49 7.594 7.125 7c.635-.594 1.365-1.052 2.188-1.375.854-.333 1.75-.5 2.687-.5.938 0 1.833.167 2.688.5.822.333 1.552.794 2.187 1.383.635.588 1.125 1.263 1.469 2.023.354.781.531 1.602.531 2.461 0 .86-.177 1.68-.531 2.461-.344.76-.834 1.438-1.469 2.031-.635.584-1.365 1.037-2.188 1.36-.854.343-1.75.515-2.687.515-.823 0-1.615-.13-2.375-.39-.167-.052-.323-.037-.469.047L7.36 18.53zm1.204-6.172c.24 0 .442-.083.609-.25.167-.166.25-.37.25-.609 0-.24-.083-.443-.25-.61-.167-.166-.37-.25-.61-.25s-.442.084-.609.25c-.167.167-.25.37-.25.61s.083.443.25.61c.167.166.37.25.61.25zm6.874 0c.24 0 .443-.083.61-.25.167-.166.25-.37.25-.609 0-.24-.083-.443-.25-.61-.167-.166-.37-.25-.61-.25s-.442.084-.609.25c-.167.167-.25.37-.25.61s.083.443.25.61c.167.166.37.25.61.25zm-3.437 0c.24 0 .443-.083.61-.25.166-.166.25-.37.25-.609 0-.24-.084-.443-.25-.61-.167-.166-.37-.25-.61-.25s-.443.084-.61.25c-.166.167-.25.37-.25.61s.084.443.25.61c.167.166.37.25.61.25z" transform="translate(-4 -4)"/>
    </g>
</svg>
