<svg xmlns="http://www.w3.org/2000/svg" width="96" height="30" viewBox="0 0 96 30">
    <path fill="#16C0EF" d="M10.52 3.6c1.833 0 3.863.34 5.71.912.69.214 1.571.578 2.646 1.093.032.016.063.033.093.053.37.243.472.739.23 1.108l-1.494 2.273c-.418.636-1.226.89-1.933.606-.67-.269-1.25-.466-1.74-.592-1.128-.29-2.356-.48-3.512-.48-.85 0-5.09.14-5.09 2.87 0 1.398 2.25 2.073 5.682 2.944l.134-.537-.129.538c3.894.988 9.202 2.335 9.39 7.484l.005.285c0 4.691-3.712 7.843-9.237 7.843-2.163 0-5.053-.511-7.917-1.808-.715-.324-1.712-.9-2.992-1.73-.02-.013-.041-.028-.06-.043-.347-.273-.407-.777-.133-1.123l1.654-2.098c.492-.625 1.37-.793 2.058-.394 1.069.619 1.907 1.04 2.515 1.263 1.965.72 3.787.96 4.875.96 3.772 0 4.336-1.8 4.336-2.87 0-1.397-2.251-2.073-5.687-2.945C5.958 18.206.528 16.828.528 11.443.528 6.752 4.543 3.6 10.52 3.6zm13.806.4c1.122 0 2.162.588 2.74 1.549L33.362 16l6.295-10.451C40.235 4.588 41.275 4 42.397 4h2.409c.143 0 .284.039.408.112.38.225.505.716.28 1.096L35.77 21.6v7.2c0 .442-.358.8-.8.8h-3.218c-.442 0-.8-.358-.8-.8v-7.2L21.23 5.208c-.073-.123-.112-.264-.112-.408 0-.442.358-.8.8-.8zm27.501 0c1.014 0 1.967.48 2.57 1.293L67.09 22.4V5.6c0-.884.716-1.6 1.6-1.6h2.418c.442 0 .8.358.8.8v24c0 .442-.358.8-.8.8h-3.21c-1.014 0-1.967-.48-2.57-1.293L52.634 11.2V28c0 .884-.717 1.6-1.6 1.6h-2.419c-.441 0-.8-.358-.8-.8v-24c0-.442.359-.8.8-.8zM86.37 4c.884 0 1.6.716 1.6 1.6V8c0 .442-.358.8-.8.8h-7.23v5.6h10.446c.883 0 1.6.716 1.6 1.6v2.4c0 .442-.358.8-.8.8H79.939v5.6H94.4c.884 0 1.6.716 1.6 1.6v2.4c0 .442-.358.8-.8.8H75.92c-.441 0-.8-.358-.8-.8v-24c0-.442.359-.8.8-.8zM95.2 0c.442 0 .8.358.8.8v5.274c0 .442-.358.8-.8.8-.212 0-.415-.084-.565-.233l-5.294-5.274c-.313-.312-.314-.819-.002-1.132.15-.15.354-.235.567-.235H95.2z"/>
</svg>
